<svg width="165" height="50" viewBox="0 0 165 50" fill="none" xmlns="http://www.w3.org/2000/svg">
<g clip-path="url(#clip0_2102_909)">
<path d="M40.5 0H10.5C4.97715 0 0.5 4.47715 0.5 10V40C0.5 45.5228 4.97715 50 10.5 50H40.5C46.0228 50 50.5 45.5228 50.5 40V10C50.5 4.47715 46.0228 0 40.5 0Z" fill="#2CB1BC"/>
<path d="M21.1136 35V17.5455H27.2159C28.4318 17.5455 29.4347 17.7557 30.2244 18.1761C31.0142 18.5909 31.6023 19.1506 31.9886 19.8551C32.375 20.554 32.5682 21.3295 32.5682 22.1818C32.5682 22.9318 32.4347 23.5511 32.1676 24.0398C31.9063 24.5284 31.5597 24.9148 31.1278 25.1989C30.7017 25.483 30.2386 25.6932 29.7386 25.8295V26C30.2727 26.0341 30.8097 26.2216 31.3494 26.5625C31.8892 26.9034 32.3409 27.392 32.7045 28.0284C33.0682 28.6648 33.25 29.4432 33.25 30.3636C33.25 31.2386 33.0511 32.0256 32.6534 32.7244C32.2557 33.4233 31.6278 33.9773 30.7699 34.3864C29.9119 34.7955 28.7955 35 27.4205 35H21.1136ZM23.2273 33.125H27.4205C28.8011 33.125 29.7813 32.858 30.3608 32.3239C30.946 31.7841 31.2386 31.1307 31.2386 30.3636C31.2386 29.7727 31.0881 29.2273 30.7869 28.7273C30.4858 28.2216 30.0568 27.8182 29.5 27.517C28.9432 27.2102 28.2841 27.0568 27.5227 27.0568H23.2273V33.125ZM23.2273 25.2159H27.1477C27.7841 25.2159 28.358 25.0909 28.8693 24.8409C29.3864 24.5909 29.7955 24.2386 30.0966 23.7841C30.4034 23.3295 30.5568 22.7955 30.5568 22.1818C30.5568 21.4148 30.2898 20.7642 29.7557 20.2301C29.2216 19.6903 28.375 19.4205 27.2159 19.4205H23.2273V25.2159Z" fill="white"/>
<path d="M58.8807 33V21.3636H63.733C64.6042 21.3636 65.3333 21.4867 65.9205 21.733C66.5114 21.9792 66.9545 22.3239 67.25 22.767C67.5492 23.2102 67.6989 23.7235 67.6989 24.3068C67.6989 24.75 67.6061 25.1458 67.4205 25.4943C67.2348 25.839 66.9792 26.125 66.6534 26.3523C66.3277 26.5795 65.9508 26.7386 65.5227 26.8295V26.9432C65.9924 26.9659 66.4261 27.0928 66.8239 27.3239C67.2254 27.5549 67.5473 27.8769 67.7898 28.2898C68.0322 28.6989 68.1534 29.1837 68.1534 29.7443C68.1534 30.3693 67.9943 30.928 67.6761 31.4205C67.358 31.9091 66.8977 32.2955 66.2955 32.5795C65.6932 32.8598 64.9621 33 64.1023 33H58.8807ZM61.6932 30.733H63.4318C64.0417 30.733 64.4905 30.6174 64.7784 30.3864C65.0701 30.1553 65.2159 29.8333 65.2159 29.4205C65.2159 29.1212 65.1458 28.8636 65.0057 28.6477C64.8655 28.428 64.6667 28.2595 64.4091 28.142C64.1515 28.0208 63.8428 27.9602 63.483 27.9602H61.6932V30.733ZM61.6932 26.1477H63.25C63.5568 26.1477 63.8295 26.0966 64.0682 25.9943C64.3068 25.892 64.4924 25.7443 64.625 25.5511C64.7614 25.358 64.8295 25.125 64.8295 24.8523C64.8295 24.4621 64.6913 24.1553 64.4148 23.9318C64.1383 23.7083 63.7652 23.5966 63.2955 23.5966H61.6932V26.1477ZM73.5795 33.1648C72.6629 33.1648 71.875 32.9773 71.2159 32.6023C70.5606 32.2235 70.0549 31.697 69.6989 31.0227C69.3466 30.3447 69.1705 29.5587 69.1705 28.6648C69.1705 27.767 69.3466 26.9811 69.6989 26.3068C70.0549 25.6288 70.5606 25.1023 71.2159 24.7273C71.875 24.3485 72.6629 24.1591 73.5795 24.1591C74.4962 24.1591 75.2822 24.3485 75.9375 24.7273C76.5966 25.1023 77.1023 25.6288 77.4545 26.3068C77.8106 26.9811 77.9886 27.767 77.9886 28.6648C77.9886 29.5587 77.8106 30.3447 77.4545 31.0227C77.1023 31.697 76.5966 32.2235 75.9375 32.6023C75.2822 32.9773 74.4962 33.1648 73.5795 33.1648ZM73.5966 31.0682C73.9299 31.0682 74.2121 30.9659 74.4432 30.7614C74.6742 30.5568 74.8504 30.2727 74.9716 29.9091C75.0966 29.5455 75.1591 29.125 75.1591 28.6477C75.1591 28.1629 75.0966 27.7386 74.9716 27.375C74.8504 27.0114 74.6742 26.7273 74.4432 26.5227C74.2121 26.3182 73.9299 26.2159 73.5966 26.2159C73.2519 26.2159 72.9602 26.3182 72.7216 26.5227C72.4867 26.7273 72.3068 27.0114 72.1818 27.375C72.0606 27.7386 72 28.1629 72 28.6477C72 29.125 72.0606 29.5455 72.1818 29.9091C72.3068 30.2727 72.4867 30.5568 72.7216 30.7614C72.9602 30.9659 73.2519 31.0682 73.5966 31.0682ZM83.4858 33.1648C82.5691 33.1648 81.7813 32.9773 81.1222 32.6023C80.4669 32.2235 79.9612 31.697 79.6051 31.0227C79.2528 30.3447 79.0767 29.5587 79.0767 28.6648C79.0767 27.767 79.2528 26.9811 79.6051 26.3068C79.9612 25.6288 80.4669 25.1023 81.1222 24.7273C81.7813 24.3485 82.5691 24.1591 83.4858 24.1591C84.4025 24.1591 85.1884 24.3485 85.8438 24.7273C86.5028 25.1023 87.0085 25.6288 87.3608 26.3068C87.7169 26.9811 87.8949 27.767 87.8949 28.6648C87.8949 29.5587 87.7169 30.3447 87.3608 31.0227C87.0085 31.697 86.5028 32.2235 85.8438 32.6023C85.1884 32.9773 84.4025 33.1648 83.4858 33.1648ZM83.5028 31.0682C83.8362 31.0682 84.1184 30.9659 84.3494 30.7614C84.5805 30.5568 84.7566 30.2727 84.8778 29.9091C85.0028 29.5455 85.0653 29.125 85.0653 28.6477C85.0653 28.1629 85.0028 27.7386 84.8778 27.375C84.7566 27.0114 84.5805 26.7273 84.3494 26.5227C84.1184 26.3182 83.8362 26.2159 83.5028 26.2159C83.1581 26.2159 82.8665 26.3182 82.6278 26.5227C82.393 26.7273 82.2131 27.0114 82.0881 27.375C81.9669 27.7386 81.9062 28.1629 81.9062 28.6477C81.9062 29.125 81.9669 29.5455 82.0881 29.9091C82.2131 30.2727 82.393 30.5568 82.6278 30.7614C82.8665 30.9659 83.1581 31.0682 83.5028 31.0682ZM91.8239 30.7102L91.8352 27.3977H92.2216L94.6761 24.2727H97.8239L94.1761 28.75H93.4432L91.8239 30.7102ZM89.3182 33V21.3636H92.0966V33H89.3182ZM94.7386 33L92.4545 29.375L94.2841 27.4034L97.9489 33H94.7386ZM98.8182 33V21.3636H101.631V26.0341H106.216V21.3636H109.023V33H106.216V28.3239H101.631V33H98.8182ZM113.247 33.1477C112.69 33.1477 112.196 33.0549 111.764 32.8693C111.336 32.6799 110.997 32.3958 110.747 32.017C110.501 31.6345 110.378 31.1553 110.378 30.5795C110.378 30.0947 110.463 29.6856 110.634 29.3523C110.804 29.0189 111.039 28.7481 111.338 28.5398C111.637 28.3314 111.982 28.1742 112.372 28.0682C112.762 27.9583 113.179 27.8845 113.622 27.8466C114.118 27.8011 114.518 27.7538 114.821 27.7045C115.124 27.6515 115.344 27.5777 115.48 27.483C115.62 27.3845 115.69 27.2462 115.69 27.0682V27.0398C115.69 26.7481 115.59 26.5227 115.389 26.3636C115.188 26.2045 114.918 26.125 114.577 26.125C114.209 26.125 113.914 26.2045 113.69 26.3636C113.467 26.5227 113.325 26.7424 113.264 27.0227L110.702 26.9318C110.777 26.4015 110.973 25.928 111.287 25.5114C111.605 25.0909 112.041 24.7614 112.594 24.5227C113.151 24.2803 113.819 24.1591 114.599 24.1591C115.156 24.1591 115.67 24.2254 116.139 24.358C116.609 24.4867 117.018 24.6761 117.366 24.9261C117.715 25.1723 117.984 25.4754 118.173 25.8352C118.366 26.1951 118.463 26.6061 118.463 27.0682V33H115.849V31.7841H115.781C115.626 32.0795 115.427 32.3295 115.185 32.5341C114.946 32.7386 114.664 32.892 114.338 32.9943C114.016 33.0966 113.652 33.1477 113.247 33.1477ZM114.105 31.3295C114.404 31.3295 114.673 31.2689 114.912 31.1477C115.154 31.0265 115.348 30.8598 115.491 30.6477C115.635 30.4318 115.707 30.1818 115.707 29.8977V29.0682C115.628 29.1098 115.531 29.1477 115.418 29.1818C115.308 29.2159 115.187 29.2481 115.054 29.2784C114.921 29.3087 114.785 29.3352 114.645 29.358C114.505 29.3807 114.37 29.4015 114.241 29.4205C113.98 29.4621 113.757 29.5265 113.571 29.6136C113.389 29.7008 113.249 29.8144 113.151 29.9545C113.056 30.0909 113.009 30.2538 113.009 30.4432C113.009 30.7311 113.111 30.9508 113.315 31.1023C113.524 31.2538 113.787 31.3295 114.105 31.3295ZM120.162 33V24.2727H122.861V25.8636H122.952C123.111 25.2879 123.37 24.8598 123.73 24.5795C124.09 24.2955 124.509 24.1534 124.986 24.1534C125.115 24.1534 125.247 24.1629 125.384 24.1818C125.52 24.197 125.647 24.2216 125.764 24.2557V26.6705C125.632 26.625 125.457 26.589 125.241 26.5625C125.029 26.536 124.84 26.5227 124.673 26.5227C124.344 26.5227 124.046 26.5966 123.781 26.7443C123.52 26.8883 123.313 27.0909 123.162 27.3523C123.014 27.6098 122.94 27.9129 122.94 28.2614V33H120.162ZM126.896 33V21.3636H129.675V25.767H129.732C129.845 25.5019 130.006 25.2462 130.214 25C130.427 24.7538 130.696 24.553 131.021 24.3977C131.351 24.2386 131.745 24.1591 132.203 24.1591C132.809 24.1591 133.375 24.3182 133.902 24.6364C134.432 24.9545 134.86 25.4451 135.186 26.108C135.512 26.7708 135.675 27.6155 135.675 28.642C135.675 29.6307 135.518 30.4583 135.203 31.125C134.893 31.7917 134.472 32.2917 133.942 32.625C133.415 32.9583 132.83 33.125 132.186 33.125C131.747 33.125 131.366 33.053 131.044 32.9091C130.722 32.7652 130.451 32.5758 130.232 32.3409C130.016 32.1061 129.849 31.8542 129.732 31.5852H129.646V33H126.896ZM129.618 28.6364C129.618 29.1061 129.68 29.5152 129.805 29.8636C129.934 30.2121 130.118 30.483 130.357 30.6761C130.599 30.8655 130.889 30.9602 131.226 30.9602C131.567 30.9602 131.857 30.8655 132.095 30.6761C132.334 30.483 132.514 30.2121 132.635 29.8636C132.76 29.5152 132.822 29.1061 132.822 28.6364C132.822 28.1667 132.76 27.7595 132.635 27.4148C132.514 27.0701 132.334 26.803 132.095 26.6136C131.86 26.4242 131.571 26.3295 131.226 26.3295C130.885 26.3295 130.595 26.4223 130.357 26.608C130.118 26.7936 129.934 27.0587 129.805 27.4034C129.68 27.7481 129.618 28.1591 129.618 28.6364ZM141.205 33.1648C140.288 33.1648 139.5 32.9773 138.841 32.6023C138.186 32.2235 137.68 31.697 137.324 31.0227C136.972 30.3447 136.795 29.5587 136.795 28.6648C136.795 27.767 136.972 26.9811 137.324 26.3068C137.68 25.6288 138.186 25.1023 138.841 24.7273C139.5 24.3485 140.288 24.1591 141.205 24.1591C142.121 24.1591 142.907 24.3485 143.562 24.7273C144.222 25.1023 144.727 25.6288 145.08 26.3068C145.436 26.9811 145.614 27.767 145.614 28.6648C145.614 29.5587 145.436 30.3447 145.08 31.0227C144.727 31.697 144.222 32.2235 143.562 32.6023C142.907 32.9773 142.121 33.1648 141.205 33.1648ZM141.222 31.0682C141.555 31.0682 141.837 30.9659 142.068 30.7614C142.299 30.5568 142.475 30.2727 142.597 29.9091C142.722 29.5455 142.784 29.125 142.784 28.6477C142.784 28.1629 142.722 27.7386 142.597 27.375C142.475 27.0114 142.299 26.7273 142.068 26.5227C141.837 26.3182 141.555 26.2159 141.222 26.2159C140.877 26.2159 140.585 26.3182 140.347 26.5227C140.112 26.7273 139.932 27.0114 139.807 27.375C139.686 27.7386 139.625 28.1629 139.625 28.6477C139.625 29.125 139.686 29.5455 139.807 29.9091C139.932 30.2727 140.112 30.5568 140.347 30.7614C140.585 30.9659 140.877 31.0682 141.222 31.0682ZM152.668 29.233V24.2727H155.44V33H152.793V31.375H152.702C152.509 31.9091 152.179 32.3333 151.713 32.6477C151.251 32.9583 150.692 33.1136 150.037 33.1136C149.442 33.1136 148.92 32.9773 148.469 32.7045C148.018 32.4318 147.668 32.0511 147.418 31.5625C147.168 31.0701 147.041 30.4943 147.037 29.8352V24.2727H149.815V29.2898C149.819 29.7633 149.944 30.1364 150.19 30.4091C150.437 30.6818 150.772 30.8182 151.196 30.8182C151.473 30.8182 151.721 30.7576 151.94 30.6364C152.164 30.5114 152.34 30.3314 152.469 30.0966C152.601 29.858 152.668 29.5701 152.668 29.233ZM157.209 33V24.2727H159.908V25.8636H159.999C160.158 25.2879 160.417 24.8598 160.777 24.5795C161.137 24.2955 161.555 24.1534 162.033 24.1534C162.161 24.1534 162.294 24.1629 162.43 24.1818C162.567 24.197 162.694 24.2216 162.811 24.2557V26.6705C162.679 26.625 162.504 26.589 162.288 26.5625C162.076 26.536 161.887 26.5227 161.72 26.5227C161.391 26.5227 161.093 26.5966 160.828 26.7443C160.567 26.8883 160.36 27.0909 160.209 27.3523C160.061 27.6098 159.987 27.9129 159.987 28.2614V33H157.209Z" fill="#2CB1BC"/>
</g>
<defs>
<clipPath id="clip0_2102_909">
<rect width="164" height="50" fill="white" transform="translate(0.5)"/>
</clipPath>
</defs>
</svg>
